<svg xmlns="http://www.w3.org/2000/svg" version="1.1" xmlns:xlink="http://www.w3.org/1999/xlink" xmlns:svgjs="http://svgjs.dev/svgjs" width="1000" height="396" viewBox="0 0 1000 396"><g transform="matrix(1,0,0,1,-0.6060606060606801,0.6270823891817088)"><svg viewBox="0 0 396 157" data-background-color="#ffffff" preserveAspectRatio="xMidYMid meet" height="396" width="1000" xmlns="http://www.w3.org/2000/svg" xmlns:xlink="http://www.w3.org/1999/xlink"><g id="tight-bounds" transform="matrix(1,0,0,1,0.24000000000003752,-0.24861599773113596)"><svg viewBox="0 0 395.5199999999999 157.49723199546227" height="157.49723199546227" width="395.5199999999999"><g><svg viewBox="0 0 395.5199999999999 157.49723199546227" height="157.49723199546227" width="395.5199999999999"><g><svg viewBox="0 0 395.5199999999999 157.49723199546227" height="157.49723199546227" width="395.5199999999999"><g id="textblocktransform"><svg viewBox="0 0 395.5199999999999 157.49723199546227" height="157.49723199546227" width="395.5199999999999" id="textblock"><g><rect width="395.5199999999999" height="115.37467589336357" fill="none" stroke-width="9.018103199999999" stroke="#096a2e" data-fill-palette-color="none" data-stroke-palette-color="tertiary"></rect><rect width="395.5199999999999" height="42.12255610209869" y="115.37467589336357" fill="#096a2e" data-fill-palette-color="tertiary"></rect></g><g><svg viewBox="0 0 395.5199999999999 115.37467589336357" height="115.37467589336357" width="395.5199999999999"><g transform="matrix(1,0,0,1,23.607599999999998,23.607599999999998)"><svg width="348.30479999999994" viewBox="4.199999809265137 -33.08000183105469 172.15000915527344 33.69000244140625" height="68.15947589336358" data-palette-color="#096a2e"><path d="M20.36 0.2L14.7-12.62Q13.96-12.57 13.13-12.57 12.3-12.57 10.67-12.7L10.67-12.7 10.67 0 4.2 0 4.2-32.64Q7.62-33.08 12.6-33.08L12.6-33.08Q19.38-33.08 22.72-30.58 26.05-28.08 26.05-22.85L26.05-22.85Q26.05-18.8 23-15.92L23-15.92Q22-14.99 20.7-14.31L20.7-14.31 25.68-3.81Q27.15-0.56 27.93 0.05L27.93 0.05 27.81 0.17Q25.44-0.22 20.36 0.2L20.36 0.2ZM13.06-27.32L13.06-27.32Q11.82-27.32 10.67-27.2L10.67-27.2 10.67-17.87Q11.87-17.7 13.48-17.7 15.09-17.7 16.19-17.98 17.29-18.26 18.09-18.85L18.09-18.85Q19.82-20.14 19.82-22.73 19.82-25.32 18.02-26.37L18.02-26.37Q16.33-27.32 13.06-27.32ZM39.69-5.86L49.66-5.86Q51.17-5.86 51.76-6.15L51.76-6.15 51.85-6.13 51.61 0 33.32 0 33.32-32.64Q33.98-32.59 34.79-32.57L34.79-32.57 36.5-32.52Q38.21-32.47 40.21-32.47L40.21-32.47Q45.8-32.47 51.27-32.67L51.27-32.67Q51-30.52 51-26.93L51-26.93Q51-26.54 51.05-26.34L51.05-26.34 51-26.27Q49.73-26.64 47.39-26.64L47.39-26.64 39.69-26.64 39.69-20.41 45.48-20.41Q48.17-20.41 48.7-20.56L48.7-20.56 48.78-14.53Q47.6-14.65 45.75-14.65L45.75-14.65 39.69-14.65 39.69-5.86ZM72.92-33.08L72.92-33.08Q77.49-33.08 80.71-31.49L80.71-31.49 80.71-24.02 80.66-23.97Q79.29-26.07 74.9-26.76L74.9-26.76Q73.6-26.98 71.63-26.98 69.65-26.98 67.74-26.23 65.84-25.49 64.62-24.12L64.62-24.12Q62.25-21.46 62.25-16.53L62.25-16.53Q62.25-10.79 65.25-7.98L65.25-7.98Q67.74-5.64 71.85-5.64L71.85-5.64Q76.48-5.64 79.37-7.62L79.37-7.62Q80.41-8.33 81.15-9.38L81.15-9.38 81.22-9.33 81.22-2.49Q77.49 0.61 71.16 0.61L71.16 0.61Q63.72 0.61 59.49-4.13L59.49-4.13Q55.44-8.64 55.44-16.09L55.44-16.09Q55.44-23.97 59.88-28.52L59.88-28.52Q64.37-33.08 72.92-33.08ZM101.92-33.08L101.92-33.08Q106.49-33.08 109.71-31.49L109.71-31.49 109.71-24.02 109.66-23.97Q108.29-26.07 103.9-26.76L103.9-26.76Q102.6-26.98 100.63-26.98 98.65-26.98 96.75-26.23 94.84-25.49 93.62-24.12L93.62-24.12Q91.25-21.46 91.25-16.53L91.25-16.53Q91.25-10.79 94.26-7.98L94.26-7.98Q96.75-5.64 100.85-5.64L100.85-5.64Q105.49-5.64 108.37-7.62L108.37-7.62Q109.42-8.33 110.15-9.38L110.15-9.38 110.22-9.33 110.22-2.49Q106.49 0.61 100.16 0.61L100.16 0.61Q92.72 0.61 88.49-4.13L88.49-4.13Q84.44-8.64 84.44-16.09L84.44-16.09Q84.44-23.97 88.88-28.52L88.88-28.52Q93.38-33.08 101.92-33.08ZM119.03-3.86Q116.81-5.98 115.53-8.96 114.25-11.94 114.25-15.49 114.25-19.04 115.44-22.22 116.64-25.39 118.86-27.81 121.08-30.22 124.23-31.65 127.38-33.08 131.29-33.08L131.29-33.08Q138.03-33.08 142.64-28.83L142.64-28.83Q147.57-24.29 147.57-16.58L147.57-16.58Q147.57-9.11 142.49-4.15L142.49-4.15Q139.37-1.1 135.05 0.05L135.05 0.05Q132.92 0.61 130.08 0.61 127.24 0.61 124.25-0.56 121.25-1.73 119.03-3.86ZM121.03-15.82L121.03-15.82Q121.03-13.55 121.79-11.65 122.55-9.74 123.89-8.37L123.89-8.37Q126.75-5.49 131.24-5.49L131.24-5.49Q135.51-5.49 138.1-8.25L138.1-8.25Q140.74-11.11 140.74-16.04L140.74-16.04Q140.74-20.68 138.22-23.78L138.22-23.78Q135.51-27.1 130.8-27.1L130.8-27.1Q126.24-27.1 123.55-23.73L123.55-23.73Q121.03-20.58 121.03-15.82ZM173.45-30.66L173.45-30.66 172.99-23.49 172.81-23.44Q171.01-26.15 166.66-26.95L166.66-26.95Q165.3-27.22 164.04-27.22 162.78-27.22 161.89-27 161-26.78 160.36-26.37L160.36-26.37Q159.02-25.49 159.02-24.07L159.02-24.07Q159.02-22.22 160.19-21.29L160.19-21.29Q161.66-20.17 165.05-19.71 168.44-19.26 170.5-18.48 172.55-17.7 173.86-16.5L173.86-16.5Q176.35-14.26 176.35-10.16L176.35-10.16Q176.35-4.79 172.3-1.88L172.3-1.88Q168.84 0.61 163.56 0.61L163.56 0.61Q159.31 0.61 155.16-1L155.16-1Q153.8-1.54 152.77-2.25L152.77-2.25 153.04-10.4 153.14-10.47Q156.16-5.25 163.07-5.25L163.07-5.25Q167.98-5.25 169.57-7.62L169.57-7.62Q170.1-8.42 170.1-9.41 170.1-10.4 169.79-11.05 169.47-11.69 168.74-12.16L168.74-12.16Q167.32-13.09 163.98-13.4 160.63-13.72 158.51-14.6 156.38-15.48 155.11-16.77L155.11-16.77Q152.82-19.12 152.82-23.32L152.82-23.32Q152.82-27.66 155.87-30.35L155.87-30.35Q158.97-33.08 164.23-33.08 169.49-33.08 173.45-30.66Z" opacity="1" transform="matrix(1,0,0,1,0,0)" fill="#096a2e" class="wordmark-text-0" data-fill-palette-color="primary" id="text-0"></path></svg></g></svg></g></svg></g></svg></g></svg></g><defs></defs></svg><rect width="395.5199999999999" height="157.49723199546227" fill="none" stroke="none" visibility="hidden"></rect></g></svg></g></svg>